<svg id="icon" xmlns="http://www.w3.org/2000/svg" xmlns:xlink="http://www.w3.org/1999/xlink" 
version="1.1" x="0px" y="0px" viewBox="0 0 50 50" style="enable-background:new 0 0 50 50;max-width:100%" 
xml:space="preserve" height="100%">
<path d="M24.9414063,23.5566406c-4.2338867,0-7.6782227-3.4443359-7.6782227-7.6782227s3.4443359-7.6787109,7.6782227-7.6787109  s7.6787109,3.4448242,7.6787109,7.6787109S29.175293,23.5566406,24.9414063,23.5566406z M24.9414063,10.199707  c-3.1308594,0-5.6782227,2.5473633-5.6782227,5.6787109c0,3.1308594,2.5473633,5.6782227,5.6782227,5.6782227  c3.1313477,0,5.6787109-2.5473633,5.6787109-5.6782227C30.6201172,12.7470703,28.0727539,10.199707,24.9414063,10.199707z   M24.9414063,42.0952148c-8.652832,0-16.659668-0.7490234-16.659668-6.184082  c0-4.8022461,7.2773438-10.3842773,16.659668-10.3842773c9.3828125,0,16.6601563,5.5820313,16.6601563,10.3842773  C41.6015625,41.3461914,33.5942383,42.0952148,24.9414063,42.0952148z M24.9414063,27.5268555  c-7.8950195,0-14.659668,4.6103516-14.659668,8.3842773c0,3.7084961,7.8344727,4.184082,14.659668,4.184082  c6.8256836,0,14.6601563-0.4755859,14.6601563-4.184082C39.6015625,32.137207,32.8369141,27.5268555,24.9414063,27.5268555z" 
style="" fill="currentColor">
</path>
</svg>